/* XPM */
static char *cr16_action_1rightarrow[] = {
/* columns rows colors chars-per-pixel */
"16 16 110 2",
"   c black",
".  c #656565",
"X  c #3E62A5",
"o  c #3D64AC",
"O  c #3765B9",
"+  c #3665BD",
"@  c #3766BE",
"#  c #3A64B3",
"$  c #3B65B3",
"%  c #3B66B6",
"&  c #3B66B7",
"*  c #3C66B6",
"=  c #3467C4",
"-  c #3268CA",
";  c #3368CA",
":  c #3268CC",
">  c #3268CD",
",  c #3269CE",
"<  c #3269CF",
"1  c #3469CB",
"2  c #3569CA",
"3  c #346ACC",
"4  c #356ACC",
"5  c #3269D0",
"6  c #3269D1",
"7  c #3269D2",
"8  c #326AD2",
"9  c #326AD3",
"0  c #326BD4",
"q  c #326CD7",
"w  c #3E70CF",
"e  c #3E71CF",
"r  c #3471E3",
"t  c #3472E4",
"y  c #3472E5",
"u  c #3572E4",
"i  c #3676EB",
"p  c #3776EB",
"a  c #3873E0",
"s  c #4F6184",
"d  c #4E6286",
"f  c #4D648E",
"g  c #486190",
"h  c #447CE5",
"j  c #4A7FE2",
"k  c #3B80FF",
"l  c #3C81FF",
"z  c #3D82FF",
"x  c #5E88D5",
"c  c #5B88DC",
"v  c #4980E6",
"b  c #4A80E4",
"n  c #4083FF",
"m  c #4084FF",
"M  c #4486FC",
"N  c #4686FC",
"B  c #4687FC",
"V  c #4987F8",
"C  c #4887FC",
"Z  c #4888FC",
"A  c #5183E0",
"S  c #5789E4",
"D  c #5A8AE3",
"F  c #658EDB",
"G  c #6E95DC",
"H  c #6494EC",
"J  c #6696EE",
"K  c #6C94E0",
"L  c #6E99E8",
"P  c #799FE5",
"I  c #6CA0FF",
"U  c #6DA0FF",
"Y  c #7EA3E6",
"T  c #73A4FD",
"R  c #85A9EC",
"E  c #8CACE5",
"W  c #8DACE7",
"Q  c #8EADE8",
"!  c #97B3E4",
"~  c #90B1EC",
"^  c #94B2EB",
"/  c #95B4EF",
"(  c #A1BAE9",
")  c #A0BDF2",
"_  c #9EC0FF",
"`  c #A5C1F4",
"'  c #A0C2FE",
"]  c #A0C2FF",
"[  c #A8C2F5",
"{  c #AAC4F4",
"}  c #B7CAEE",
"|  c #B8CCEE",
" . c #B9CCF0",
".. c #C4D4F1",
"X. c #CBD9F3",
"o. c #CDDAF4",
"O. c #CEE0FF",
"+. c #D4E0F4",
"@. c #D2E2FE",
"#. c #DCE6F6",
"$. c #D8E4FA",
"%. c #DAE6FA",
"&. c #E0E9F9",
"*. c #E1E9F8",
"=. c #E4EBF8",
"-. c #EBF0FA",
";. c #ECF1FA",
":. c #F2F5FB",
">. c gray100",
",. c None",
/* pixels */
",.,.,.,.,.6 6 > > > @ ,.,.,.,.,.",
",.,.,.6 6 0 y c c r 0 : O ,.,.,.",
",.,.6 6 v [ =.:.;.;. .S : & ,.,.",
",.6 6 H +.*.*.{ { #.&.#.Y : X ,.",
",.6 v ..o.o.o.>.>.` o.o.X.S = . ",
": 0 ~ | | | | ;.>.>.) | } ! 0 g ",
": a ( ^ R R R R $.>.>./ V k r # ",
": b E $.>.>.>.>.>.>.>.>.I k i & ",
": h L >.>.>.>.>.>.>.>.>._ z i * ",
"; y B T _ ] _ _ O.>.>.O.z n y o ",
"@ 0 Z Z Z Z m U >.>.@.B B C 6 s ",
",.; b J J H H >.>.$.H J H v @ . ",
",.O 4 K Y Y Y &.&.Y Y Y K 4 s . ",
",.,.# 4 F E W W Q Q E F 2 f . ,.",
",.,.,.X = w x G G F e = s . ,.,.",
",.,.,.,.. g # & # o s . . ,.,.,."
};
