/* XPM */
static char *cr16_action_1leftarrow[] = {
/* columns rows colors chars-per-pixel */
"16 16 105 2",
"   c black",
".  c #656565",
"X  c #3E62A5",
"o  c #3D64AC",
"O  c #3765B9",
"+  c #3665BD",
"@  c #3766BE",
"#  c #3A64B3",
"$  c #3B65B3",
"%  c #3B66B6",
"&  c #3B66B7",
"*  c #3C66B6",
"=  c #3467C4",
"-  c #3268CA",
";  c #3368CA",
":  c #3268CC",
">  c #3268CD",
",  c #3269CE",
"<  c #3269CF",
"1  c #3469CB",
"2  c #3569CA",
"3  c #346ACC",
"4  c #356ACC",
"5  c #3269D0",
"6  c #3269D1",
"7  c #3269D2",
"8  c #326AD2",
"9  c #326AD3",
"0  c #326BD4",
"q  c #326CD7",
"w  c #3E70CF",
"e  c #3E71CF",
"r  c #3471E3",
"t  c #3472E4",
"y  c #3472E5",
"u  c #3572E4",
"i  c #3676EB",
"p  c #3776EB",
"a  c #3873E0",
"s  c #4F6184",
"d  c #4E6286",
"f  c #4D648E",
"g  c #486190",
"h  c #447CE5",
"j  c #4A7FE2",
"k  c #3B80FF",
"l  c #3C81FF",
"z  c #5E88D5",
"x  c #5B88DC",
"c  c #4980E6",
"v  c #4A80E4",
"b  c #4083FE",
"n  c #4083FF",
"m  c #4486FC",
"M  c #4686FC",
"N  c #4687FC",
"B  c #4987F8",
"V  c #4887FC",
"C  c #4888FC",
"Z  c #5183E0",
"A  c #5789E4",
"S  c #5A8AE3",
"D  c #658EDB",
"F  c #6E95DC",
"G  c #6494EC",
"H  c #6696EE",
"J  c #6C94E0",
"K  c #6E99E8",
"L  c #799FE5",
"P  c #6CA0FF",
"I  c #6DA1FF",
"U  c #7EA3E6",
"Y  c #8CACE5",
"T  c #8DACE7",
"R  c #8EADE8",
"E  c #95B1E6",
"W  c #97B3E4",
"Q  c #90B1EC",
"!  c #A1BAE9",
"~  c #A3BCEA",
"^  c #9DC0FF",
"/  c #ABC1EC",
"(  c #A8C2F5",
")  c #B7CAEE",
"_  c #B8CCEE",
"`  c #B9CCF0",
"'  c #B9CEF4",
"]  c #C4D4F1",
"[  c #CBD9F3",
"{  c #CDDAF4",
"}  c #CEDFFF",
"|  c #D4E0F4",
" . c #D0E0FE",
".. c #D1E1FE",
"X. c #DCE6F6",
"o. c #D8E4FA",
"O. c #DEE7F8",
"+. c #E1E9F8",
"@. c #E4EBF8",
"#. c #E7EEF9",
"$. c #EBF0FA",
"%. c #EDF2FA",
"&. c #F2F5FB",
"*. c gray100",
"=. c None",
/* pixels */
"=.=.=.=.=.6 6 > > > @ =.=.=.=.=.",
"=.=.=.6 6 0 y x x r 0 - O =.=.=.",
"=.=.6 6 c ( @.&.%.$.` A : & =.=.",
"=.6 6 G | +.+./ / O.O.O.U : X =.",
"=.6 c ] { { / *.*./ { { [ S = . ",
": 0 Q _ _ / *.*.%._ _ _ ) E 6 g ",
": a ! ~ / *.*.#.~ ~ ~ E C l t & ",
": v Y / *.*.*.*.*.*.*.*...p i & ",
": h K ' *.*.*.*.*.*.*.*.*.l p * ",
"- y N C  .*.*.} ^ ^ ^ ^ I l u o ",
"@ 0 C C N  .*.*.P p m N C C 6 d ",
"=.; v H H G o.*.*.G H H G c @ . ",
"=.O 4 J U U U O.O.U U U J 2 d . ",
"=.=.$ 4 D T T T R T T D 2 f . =.",
"=.=.=.X = w z F F z e @ d . =.=.",
"=.=.=.=.. f & & * o s . . =.=.=."
};
