/* XPM */
static char *cr16_action_bookmark[] = {
/* columns rows colors chars-per-pixel */
"16 15 105 2",
"   c black",
".  c #B43600",
"X  c #B73800",
"o  c #BB3C00",
"O  c #BC3E00",
"+  c #BE3E00",
"@  c #BE4000",
"#  c #BF4200",
"$  c #C24400",
"%  c #C24500",
"&  c #C34600",
"*  c #C34700",
"=  c #C54600",
"-  c #C54800",
";  c #C64A00",
":  c #CB4E00",
">  c #CF5300",
",  c #CF5C03",
"<  c #D25500",
"1  c #D15C02",
"2  c #D45800",
"3  c #D65A00",
"4  c #D95F00",
"5  c #DC5900",
"6  c #D56103",
"7  c #D56406",
"8  c #D56B0E",
"9  c #DB6001",
"0  c #DB6100",
"q  c #DC6A04",
"w  c #D97612",
"e  c #DE7C15",
"r  c #E26601",
"t  c #E16A02",
"y  c #E46B00",
"u  c #E76F00",
"i  c #EA6900",
"p  c #E27002",
"a  c #E77104",
"s  c #ED7600",
"d  c #EF7700",
"f  c #EA7F02",
"g  c #EF7800",
"h  c #EF7E02",
"j  c #E17F15",
"k  c #F07900",
"l  c #F27A00",
"z  c #F77E03",
"x  c #ED8307",
"c  c #EF8803",
"v  c #EF8808",
"b  c #E48215",
"n  c #E78515",
"m  c #EF9319",
"M  c #F78000",
"N  c #F28807",
"B  c #F38D03",
"V  c #F58E03",
"C  c #F58C06",
"Z  c #F88300",
"A  c #FB8203",
"S  c #FB8800",
"D  c #FB8C03",
"F  c #FA8E02",
"G  c #FD8900",
"H  c #FE8A00",
"J  c #F88808",
"K  c #F89307",
"L  c #FE9709",
"P  c #F09215",
"I  c #F39715",
"U  c #EA9320",
"Y  c #EA9722",
"T  c #FEA608",
"R  c #FEA708",
"E  c #F2A31D",
"W  c #F3A91C",
"Q  c #FEB40E",
"!  c #FEB50E",
"~  c #FEB70E",
"^  c #FEBF17",
"/  c #FBAE27",
"(  c #F0AE3E",
")  c #F7B526",
"_  c #F3B131",
"`  c #FAC216",
"'  c #FEC615",
"]  c #FED61E",
"[  c #FBC629",
"{  c #FECF20",
"}  c #FEE129",
"|  c #FEE528",
" . c #FDE232",
".. c #FEF732",
"X. c #FEFE37",
"o. c #FBDC49",
"O. c #FBEA4E",
"+. c #FAE755",
"@. c #FEF746",
"#. c #FEF74D",
"$. c #FDF354",
"%. c #FDF554",
"&. c #FEF05F",
"*. c #FEFEBB",
"=. c None",
/* pixels */
"=.=.=.=.=.=.=.k k =.=.=.=.=.=.=.",
"=.=.=.=.=.=.k N x u =.=.=.=.=.=.",
"=.=.=.=.=.=.g ) _ t =.=.=.=.=.=.",
"=.=.=.=.=.=.h %.%.u =.=.=.=.=.=.",
"=.=.=.=.=.g E X.X.Y b *.=.=.=.=.",
"H S M C I P O.X.X.+.j e 7 8 ; * ",
"H / &.#.#.............@.#.o.w * ",
"=.z V  .| | | | | | | } [ , * =.",
"=.=.g v ` ] ] ] ] ] { W 1 * =.=.",
"=.=.=.m x ' ' ' ' ' ^ 6 ; =.=.=.",
"=.=.=.( c ! ! ! ! ! ! q * =.=.=.",
"=.=.=.m B R L J K T T a # =.=.=.",
"=.=.=.n D A r > : 4 H z O =.=.=.",
"=.=.*.t i 3 < =.=.; & 5 O =.=.=.",
"=.=.9 4 3 3 =.=.=.=.# o X . =.=."
};
