/* XPM */
static char *cr16_action_2leftarrow[] = {
/* columns rows colors chars-per-pixel */
"16 16 103 2",
"   c black",
".  c #656565",
"X  c #3E62A5",
"o  c #3D64AC",
"O  c #3765B9",
"+  c #3665BD",
"@  c #3766BE",
"#  c #3A64B3",
"$  c #3B65B3",
"%  c #3B66B6",
"&  c #3B66B7",
"*  c #3C66B6",
"=  c #3467C4",
"-  c #3268CA",
";  c #3368CA",
":  c #3268CC",
">  c #3268CD",
",  c #3269CE",
"<  c #3269CF",
"1  c #3469CB",
"2  c #3569CA",
"3  c #346ACC",
"4  c #356ACC",
"5  c #3269D0",
"6  c #3269D1",
"7  c #3269D2",
"8  c #326AD2",
"9  c #326AD3",
"0  c #326BD4",
"q  c #326CD7",
"w  c #3E70CF",
"e  c #3E71CF",
"r  c #3471E3",
"t  c #3472E4",
"y  c #3472E5",
"u  c #3572E4",
"i  c #3676EB",
"p  c #3776EB",
"a  c #3873E0",
"s  c #4F6184",
"d  c #4E6286",
"f  c #4D648E",
"g  c #486190",
"h  c #447CE5",
"j  c #4A7FE2",
"k  c #5E88D5",
"l  c #5B88DC",
"z  c #4980E6",
"x  c #4A80E4",
"c  c #4083FF",
"v  c #4686FC",
"b  c #4887FC",
"n  c #4888FC",
"m  c #5183E0",
"M  c #5789E4",
"N  c #5A8AE3",
"B  c #658EDB",
"V  c #6E95DC",
"C  c #6494EC",
"Z  c #6696EE",
"A  c #6C94E0",
"S  c #799FE5",
"D  c #6DA0FF",
"F  c #7EA3E6",
"G  c #72A4FD",
"H  c #76A5FA",
"J  c #8DACE6",
"K  c #8DACE7",
"L  c #8EADE8",
"P  c #8AAFF4",
"I  c #8EB1F2",
"U  c #92AFE6",
"Y  c #90B1EC",
"T  c #96B6F2",
"R  c #A0BBEC",
"E  c #ABC1EA",
"W  c #A8C2F5",
"Q  c #B8CCEE",
"!  c #B2CAF6",
"~  c #B6CCF4",
"^  c #B9CCF0",
"/  c #C4D4F1",
"(  c #C7D6F2",
")  c #CDDAF4",
"_  c #CEE0FF",
"`  c #D4E0F4",
"'  c #D0E0FE",
"]  c #D2E2FE",
"[  c #DAE6FA",
"{  c #E0E9F9",
"}  c #E1E9F8",
"|  c #E4EBF8",
" . c #E4EBF9",
".. c #E7EDF9",
"X. c #E9EFFA",
"o. c #EAF0FA",
"O. c #EBF0FA",
"+. c #ECF1FA",
"@. c #EEF3FB",
"#. c #F2F5FB",
"$. c #F4F7FC",
"%. c gray100",
"&. c None",
/* pixels */
"&.&.&.&.&.6 6 > > > @ &.&.&.&.&.",
"&.&.&.6 9 0 y l l r 9 ; O &.&.&.",
"&.&.6 6 z W | #.@.+.Q M : & &.&.",
"&.6 6 C ` } U o.[ } U @.F : X &.",
"&.6 z / ) U %.%.) U $.%.} N = . ",
": 0 Y Q U %.%.+.U @.%.%.( P 9 g ",
": a U U %.%...U ..%.%.E P P y # ",
": x U %.%.| U | %.%.P P P P i & ",
": h ~ %.%.T H %.%._ P P P P p * ",
"; y v ] %.%.G D %.%._ P P c y o ",
"@ 9 n n ] %.%.D D %.%._ D n 6 s ",
"&.; x C C [ %.%.C I %.%.! z @ . ",
"&.O 3 A F F } { F F R %.J 2 s . ",
"&.&.$ 3 B K K K K K J B 2 f . &.",
"&.&.&.X = e k V V k e = s . &.&.",
"&.&.&.&.. g $ * * o s . . &.&.&."
};
