/* XPM */
static char *cr16_action_2rightarrow[] = {
/* columns rows colors chars-per-pixel */
"16 16 111 2",
"   c black",
".  c #656565",
"X  c #3E62A5",
"o  c #3D64AC",
"O  c #3765B9",
"+  c #3665BD",
"@  c #3766BE",
"#  c #3A64B3",
"$  c #3B65B3",
"%  c #3B66B6",
"&  c #3B66B7",
"*  c #3C66B6",
"=  c #3467C4",
"-  c #3268CA",
";  c #3368CA",
":  c #3268CC",
">  c #3268CD",
",  c #3269CE",
"<  c #3269CF",
"1  c #3469CB",
"2  c #3569CA",
"3  c #346ACC",
"4  c #356ACC",
"5  c #3269D0",
"6  c #3269D1",
"7  c #3269D2",
"8  c #326AD2",
"9  c #326AD3",
"0  c #326BD4",
"q  c #326CD7",
"w  c #3E70CF",
"e  c #3E71CF",
"r  c #3471E3",
"t  c #3472E4",
"y  c #3472E5",
"u  c #3572E4",
"i  c #3676EB",
"p  c #3776EB",
"a  c #3873E0",
"s  c #4F6184",
"d  c #4E6286",
"f  c #4D648E",
"g  c #486190",
"h  c #447CE5",
"j  c #4A7FE2",
"k  c #5E88D5",
"l  c #5B88DC",
"z  c #4980E6",
"x  c #4A80E4",
"c  c #4083FF",
"v  c #4686FC",
"b  c #4687FC",
"n  c #4887FC",
"m  c #4888FC",
"M  c #5183E0",
"N  c #5789E4",
"B  c #5A8AE3",
"V  c #658EDB",
"C  c #6E95DC",
"Z  c #6494EC",
"A  c #6696EE",
"S  c #6C94E0",
"D  c #6E99E8",
"F  c #6E9BEE",
"G  c #6597F2",
"H  c #749DE9",
"J  c #799FE5",
"K  c #6CA0FF",
"L  c #6DA0FF",
"P  c #7EA3E6",
"I  c #7AA1EA",
"U  c #8CACE5",
"Y  c #8DACE7",
"T  c #8FADE6",
"R  c #8EADE8",
"E  c #8EB1F2",
"W  c #92AFE6",
"Q  c #97B3E4",
"!  c #90B1EC",
"~  c #A1BAE9",
"^  c #A0BBEC",
"/  c #A3BCEA",
"(  c #ADC3EC",
")  c #B8CCEE",
"_  c #B9CCEE",
"`  c #B2CAF6",
"'  c #B9CCF0",
"]  c #C1D2F2",
"[  c #C4D4F1",
"{  c #C8D8F2",
"}  c #CBD9F3",
"|  c #CEE0FF",
" . c #D0E0FF",
".. c #D0E1FF",
"X. c #D2E1FE",
"o. c #D2E2FE",
"O. c #DCE6F6",
"+. c #D8E4FA",
"@. c #DAE6FA",
"#. c #E4EBF8",
"$. c #E4EBF9",
"%. c #E6EDF9",
"&. c #E7EDF9",
"*. c #E9EFFA",
"=. c #ECF1FA",
"-. c #EEF3FB",
";. c #F2F5FB",
":. c #F4F7FC",
">. c #F9FAFE",
",. c gray100",
"<. c None",
/* pixels */
"<.<.<.<.<.6 6 : : : + <.<.<.<.<.",
"<.<.<.6 6 0 u M l u 0 ; O <.<.<.",
"<.<.6 6 h / #.;./ / ' N : & <.<.",
"<.6 6 Z -.>./ / &.,./ O.I : X <.",
"<.6 z [ ,.,.:./ &.,.,./ { B = . ",
": 0 ! _ { ,.,.-.~ -.,.,./ Q 9 f ",
": a ~ / / _ ,.,.&./ &.,.,.G r # ",
": x U U W W ( ,.,.&.F | ,.,.i & ",
": h D H J G @.,.,.K K ,.,.} p & ",
"; u v v v o.,.,.K K ,.,.o.c u $ ",
"+ 9 n m o.,.,.K K ,.,.o.m m 0 d ",
"<.; z Z ,.,.E Z ` ,.@.Z Z x @ . ",
"<.O 4 S ^ ^ P P U ' J U S 4 d . ",
"<.<.# 4 V Y Y Y Y Y Y V 4 f . <.",
"<.<.<.X = w k C C l w @ d . <.<.",
"<.<.<.<.. g # O # o d . . <.<.<."
};
