/* XPM */
static char * hi16_moon_xpm[] = {
"16 16 119 2",
"  	c None",
". 	c #3A8ADF",
"+ 	c #5DA4E9",
"@ 	c #72BBFA",
"# 	c #6BB7F7",
"$ 	c #4F9BE4",
"% 	c #3473B7",
"& 	c #1B4B8E",
"* 	c #0F437A",
"= 	c #2B435A",
"- 	c #32475F",
"; 	c #3A5E87",
"> 	c #5B95CA",
", 	c #6EBCFF",
"' 	c #5EB4FF",
") 	c #55A7F5",
"! 	c #3470B3",
"~ 	c #2A4979",
"{ 	c #5A9AF0",
"] 	c #4B9AFF",
"^ 	c #4EA4FF",
"/ 	c #3D82D0",
"( 	c #21396B",
"_ 	c #5899F3",
": 	c #438DFF",
"< 	c #4A9DFF",
"[ 	c #2E6BC2",
"} 	c #3A67AC",
"| 	c #59A9FF",
"1 	c #4490FF",
"2 	c #3F8FFF",
"3 	c #0D2E70",
"4 	c #122859",
"5 	c #5EA9F6",
"6 	c #52A9FF",
"7 	c #449CFF",
"8 	c #1656C2",
"9 	c #4285DC",
"0 	c #57ACF8",
"a 	c #4FACFF",
"b 	c #1F71E2",
"c 	c #00062B",
"d 	c #498AE1",
"e 	c #59A6F3",
"f 	c #77C7FF",
"g 	c #2C80EB",
"h 	c #000738",
"i 	c #1A42B7",
"j 	c #5A99EE",
"k 	c #5EB4FE",
"l 	c #7BBFFF",
"m 	c #B3E5FF",
"n 	c #3A80E7",
"o 	c #000234",
"p 	c #0C47C4",
"q 	c #397EE4",
"r 	c #5FB1FB",
"s 	c #51AAFD",
"t 	c #3B95F4",
"u 	c #9BCFFE",
"v 	c #CBF3FF",
"w 	c #2C66D5",
"x 	c #00001F",
"y 	c #092D80",
"z 	c #143060",
"A 	c #2452A8",
"B 	c #4FA2FA",
"C 	c #58ADFC",
"D 	c #A1D5FE",
"E 	c #87CDFF",
"F 	c #072EA0",
"G 	c #033F96",
"H 	c #011670",
"I 	c #3473C8",
"J 	c #57A9FF",
"K 	c #6CC2FF",
"L 	c #297EF0",
"M 	c #00043F",
"N 	c #052B6A",
"O 	c #2157AD",
"P 	c #264B88",
"Q 	c #2442B1",
"R 	c #458BED",
"S 	c #54B4FF",
"T 	c #469EFF",
"U 	c #459CFF",
"V 	c #41A0FF",
"W 	c #092D83",
"X 	c #103070",
"Y 	c #4481D9",
"Z 	c #5B98E6",
"` 	c #598ED5",
" .	c #5588D3",
"..	c #5B95E0",
"+.	c #66B2F7",
"@.	c #5FB8FF",
"#.	c #50A5FF",
"$.	c #499BFF",
"%.	c #4694FB",
"&.	c #1F4491",
"*.	c #000006",
"=.	c #02143F",
"-.	c #2356AE",
";.	c #428AEB",
">.	c #53A4FF",
",.	c #54ABFF",
"'.	c #50A6FF",
").	c #4D9EFF",
"!.	c #448DFA",
"~.	c #336BC6",
"{.	c #13285E",
"].	c #000002",
"^.	c #000936",
"/.	c #08216E",
"(.	c #143688",
"_.	c #1B3F8C",
":.	c #19367B",
"<.	c #0F1F4D",
"[.	c #020514",
"        . + @ # $ % &           ",
"      * = - ; > , ' ) !         ",
"                ~ { ] ^ /       ",
"                  ( _ : < [     ",
"                    } | 1 2 3   ",
"                    4 5 6 7 8   ",
"                      9 0 a b c ",
"                      d e f g h ",
"                  i j k l m n o ",
"              p q r s t u v w x ",
"              y z A B C D E F   ",
"G               H I 6 J K L M   ",
"N O P         Q R S T U V W     ",
"  X Y Z `  ...+.@.#.$.%.&.*.    ",
"    =.-.;.>.,.'.).!.~.{.].      ",
"        ^./.(._.:.<.[.          "};
