/* XPM */
static char * hi16_moon_apply_xpm[] = {
"16 16 91 1",
" 	c None",
".	c #3A8ADF",
"+	c #5DA4E9",
"@	c #72BBFA",
"#	c #6BB7F7",
"$	c #4F9BE4",
"%	c #3473B7",
"&	c #1B4B8E",
"*	c #0F437A",
"=	c #2B435A",
"-	c #32475F",
";	c #3A5E87",
">	c #5B95CA",
",	c #6EBCFF",
"'	c #5EB4FF",
")	c #55A7F5",
"!	c #3470B3",
"~	c #C0FFC0",
"{	c #2A4979",
"]	c #5A9AF0",
"^	c #4B9AFF",
"/	c #4EA4FF",
"(	c #3D82D0",
"_	c #00C000",
":	c #21396B",
"<	c #5899F3",
"[	c #438DFF",
"}	c #4A9DFF",
"|	c #008000",
"1	c #3A67AC",
"2	c #59A9FF",
"3	c #004000",
"4	c #122859",
"5	c #000000",
"6	c #00062B",
"7	c #400000",
"8	c #2C80EB",
"9	c #000738",
"0	c #B3E5FF",
"a	c #3A80E7",
"b	c #000234",
"c	c #9BCFFE",
"d	c #CBF3FF",
"e	c #2C66D5",
"f	c #00001F",
"g	c #58ADFC",
"h	c #A1D5FE",
"i	c #87CDFF",
"j	c #072EA0",
"k	c #033F96",
"l	c #52A9FF",
"m	c #57A9FF",
"n	c #6CC2FF",
"o	c #297EF0",
"p	c #00043F",
"q	c #052B6A",
"r	c #2157AD",
"s	c #264B88",
"t	c #54B4FF",
"u	c #469EFF",
"v	c #459CFF",
"w	c #41A0FF",
"x	c #092D83",
"y	c #103070",
"z	c #4481D9",
"A	c #5B98E6",
"B	c #598ED5",
"C	c #5FB8FF",
"D	c #50A5FF",
"E	c #499BFF",
"F	c #4694FB",
"G	c #1F4491",
"H	c #000006",
"I	c #02143F",
"J	c #2356AE",
"K	c #428AEB",
"L	c #53A4FF",
"M	c #54ABFF",
"N	c #50A6FF",
"O	c #4D9EFF",
"P	c #448DFA",
"Q	c #336BC6",
"R	c #13285E",
"S	c #000002",
"T	c #000936",
"U	c #08216E",
"V	c #143688",
"W	c #1B3F8C",
"X	c #19367B",
"Y	c #0F1F4D",
"Z	c #020514",
"    .+@#$%&     ",
"   *=-;>,')!   ~",
"        {]^/( ~_",
"         :<[}~_|",
"          12~_|3",
"          4~_|35",
"  ~|      ~_|356",
" ~__|    ~_|3789",
"53|__|  ~_|350ab",
" 53|__|~_|37cdef",
"  73|___|37ghij ",
"k  53|_|35lmnop ",
"qrs 53|35tuvwx  ",
" yzAB575CDEFGH  ",
"  IJKLMNOPQRS   ",
"    TUVWXYZ     "};
