/* XPM */
static char *hi22_action_player_pause[]={
"22 22 36 1",
". c None",
"E c #000000",
"# c #010101",
"a c #040404",
"b c #090909",
"q c #0c0c0c",
"c c #0d0d0d",
"t c #0e0e0e",
"u c #0f0f0f",
"B c #101010",
"r c #141414",
"h c #181818",
"l c #1a1a1a",
"F c #222222",
"g c #515151",
"H c #616161",
"G c #6b6b6b",
"C c #6f6f6f",
"p c #727272",
"w c #737373",
"z c #8b8b8b",
"f c #909090",
"o c #929292",
"A c #949494",
"y c #979797",
"x c #a3a3a3",
"e c #a4a4a4",
"s c #acacac",
"m c #aeaeae",
"v c #afafaf",
"i c #b1b1b1",
"k c #b7b7b7",
"d c #c0c0c0",
"D c #e6e6e6",
"j c #e8e8e8",
"n c #ffffff",
"......................",
"......................",
"......................",
"......................",
"......................",
"....#abba#..#abba#....",
"....cdefga..cdefga....",
"....hijkgb..hijkgb....",
"....lmnopq..lmnopq....",
"....rsnopt..rsnopt....",
"....uvnowt..uvnowt....",
"....txnowt..txnowt....",
"....tynzpt..tynzpt....",
"....tAnzpt..tAnzpt....",
"....BCDzpE..BCDzpE....",
"....FG.zpE..FG.zpE....",
"....#HzpgE..#HzpgE....",
"....EEEEEE..EEEEEE....",
"......................",
"......................",
"......................",
"......................"};
