/* XPM */
static char *hi22_action_2uparrow_half[]={
"22 22 37 1",
". c None",
"# c #000000",
"I c #040404",
"H c #090909",
"G c #0d0d0d",
"F c #121212",
"E c #161616",
"D c #1b1b1b",
"C c #1f1f1f",
"B c #242424",
"A c #282828",
"z c #2d2d2d",
"y c #313131",
"t c #323232",
"a c #5d5d5d",
"b c #800000",
"j c #838383",
"n c #858585",
"h c #868686",
"i c #888888",
"g c #8e8e8e",
"e c #929292",
"m c #989898",
"l c #9a9a9a",
"x c #a5a5a5",
"s c #adadad",
"w c #afafaf",
"k c #b7b7b7",
"d c #c00000",
"c c #c1c1c1",
"u c #c4c4c4",
"v c #c5c5c5",
"r c #c7c7c7",
"q c #e0e0e0",
"o c #e4e4e4",
"p c #efefef",
"f c #ff0000",
"......................",
"..........##..........",
".........#ab#.........",
"........#acdb#........",
".......#a.efdb#.......",
"......#a.ghffdb#......",
".....#a.gijfffdb#.....",
"....#a.klmnffffdb#....",
"...#aopqrrsfffffdb#...",
"..tauvkwwxlbbbbbbbb#..",
"..tttyzABCDEFGHI####..",
"..........##..........",
".........#ab#.........",
"........#acdb#........",
".......#a.efdb#.......",
"......#a.ghffdb#......",
".....#a.gijfffdb#.....",
"....#a.klmnffffdb#....",
"...#aopqrrsfffffdb#...",
"..tauvkwwxlbbbbbbbb#..",
"..tttyzABCDEFGHI####..",
"......................"};
