/* XPM */
static char *hi22_action_queue[]={
"24 24 72 2",
"Qt c None",
".h c #000000",
"#f c #303030",
"#d c #313131",
"#c c #353535",
".9 c #363636",
".M c #373737",
".8 c #383838",
".G c #393939",
"#a c #3c3c3c",
".X c #3d3d3d",
".4 c #3f3f3f",
".# c #4c4c4c",
".g c #606060",
".u c #676767",
".b c #676789",
".m c #686868",
".N c #6b6b6b",
".d c #6f6f6f",
".z c #717171",
".Y c #7d7d7d",
".t c #7e7e7e",
".a c #a0a0a0",
"#e c #afafaf",
"## c #b2b2b2",
".L c #bfbfbf",
".c c #c0c0ff",
".6 c #c4c4c4",
".T c #c5c5c5",
".5 c #cccccc",
"#b c #cecece",
".w c #d1d1d1",
".2 c #d2d2d2",
".q c #d3d3d3",
".r c #d4d4d4",
".v c #d5d5d5",
".W c #d6d6d6",
".K c #d8d8d8",
".S c #d9d9d9",
".B c #dadada",
".A c #dbdbdb",
".7 c #dddddd",
".x c #dedede",
".p c #e1e1e1",
".o c #e3e3e3",
".3 c #e4e4e4",
".V c #e5e5e5",
".0 c #e6e6e6",
".Z c #e7e7e7",
".j c #e8e8e8",
".1 c #e9e9e9",
"#. c #ebebeb",
".C c #ececec",
".H c #ededed",
".O c #eeeeee",
".l c #efefef",
".k c #f0f0f0",
".P c #f1f1f1",
".n c #f2f2f2",
".I c #f3f3f3",
".s c #f4f4f4",
".D c #f5f5f5",
".f c #f6f6f6",
".i c #f7f7f7",
".U c #f8f8f8",
".e c #f9f9f9",
".F c #fafafa",
".Q c #fbfbfb",
".E c #fcfcfc",
".J c #fdfdfd",
".R c #fefefe",
".y c #ffffff",
"QtQtQtQtQtQtQtQtQtQtQtQtQtQtQtQtQtQtQtQtQtQtQtQt",
"QtQtQtQtQtQtQtQtQtQtQtQtQtQtQtQtQtQtQtQtQtQtQtQt",
"QtQtQtQtQtQtQtQtQtQtQt.#.#QtQtQtQtQtQtQtQtQtQtQt",
"QtQtQtQtQtQtQtQtQtQt.#.a.a.#.#QtQtQtQtQtQtQtQtQt",
"QtQtQtQtQtQtQtQt.b.b.#.a.a.a.a.#.#QtQtQtQtQtQtQt",
"QtQtQtQtQtQtQt.b.c.c.b.b.a.a.a.a.a.#.#QtQtQtQtQt",
"QtQtQtQtQt.d.d.b.c.c.c.c.b.b.a.a.a.a.a.#.#QtQtQt",
"QtQtQtQt.d.e.f.g.g.c.c.c.c.c.b.b.a.a.a.a.a.hQtQt",
"QtQtQtQt.d.i.j.k.l.g.m.c.c.c.c.c.b.b.a.a.a.hQtQt",
"QtQtQt.d.n.o.p.q.r.s.i.t.t.c.c.c.c.c.h.a.hQtQtQt",
"QtQtQt.u.n.v.wQt.x.k.i.y.y.z.z.c.c.c.h.a.hQtQtQt",
"QtQt.u.l.A.B.B.C.D.y.y.E.s.F.p.G.c.h.a.hQtQtQtQt",
"QtQt.g.H.p.j.I.y.y.J.D.C.p.K.L.M.c.h.a.hQtQtQtQt",
"Qt.N.O.r.P.Q.y.R.f.H.o.S.q.T.M.c.h.a.hQtQtQtQtQt",
"Qt.N.Q.F.R.y.U.l.V.A.r.x.j.W.X.c.h.a.hQtQtQtQtQt",
".Y.J.y.y.e.P.ZQt.W.v.Z.i.0.X.c.h.a.hQtQtQtQtQtQt",
".Y.j.o.n.1.x.W.2.3.l.y.y.2.h.c.h.a.hQtQtQtQtQtQt",
"Qt.4.4.5.6.w.7.n.y.y.j.5.8.c.h.h.hQtQtQtQtQtQtQt",
"QtQtQt.9.9.wQt.y#..p.r##.8.c.hQtQtQtQtQtQtQtQtQt",
"QtQtQtQtQt#a#a#b.6.6###c.h.hQtQtQtQtQtQtQtQtQtQt",
"QtQtQtQtQtQtQt#d#d#e#e#cQtQtQtQtQtQtQtQtQtQtQtQt",
"QtQtQtQtQtQtQtQtQt#f#fQtQtQtQtQtQtQtQtQtQtQtQtQt",
"QtQtQtQtQtQtQtQtQtQtQtQtQtQtQtQtQtQtQtQtQtQtQtQt",
"QtQtQtQtQtQtQtQtQtQtQtQtQtQtQtQtQtQtQtQtQtQtQtQt"};
