/* XPM */
static char *hi22_action_1uparrow[]={
"22 22 42 1",
". c None",
"# c #000000",
"N c #040404",
"M c #090909",
"L c #0d0d0d",
"K c #121212",
"J c #161616",
"I c #1b1b1b",
"H c #1f1f1f",
"G c #242424",
"F c #282828",
"E c #2d2d2d",
"D c #313131",
"t c #323232",
"b c #3a3a3a",
"C c #3f3f3f",
"a c #5d5d5d",
"B c #6e6e6e",
"A c #707070",
"d c #747474",
"z c #7a7a7a",
"j c #838383",
"n c #858585",
"h c #868686",
"i c #888888",
"s c #8a8a8a",
"g c #8e8e8e",
"y c #909090",
"e c #929292",
"m c #989898",
"l c #9a9a9a",
"x c #a5a5a5",
"f c #adadad",
"w c #afafaf",
"k c #b7b7b7",
"c c #c1c1c1",
"u c #c4c4c4",
"v c #c5c5c5",
"r c #c7c7c7",
"q c #e0e0e0",
"o c #e4e4e4",
"p c #efefef",
"......................",
"......................",
"......................",
"......................",
"......................",
"......................",
"..........##..........",
".........#ab#.........",
"........#acdb#........",
".......#a.efdb#.......",
"......#a.ghgfdb#......",
".....#a.gijjgfdb#.....",
"....#a.klmnjjgfdb#....",
"...#aopqrrflmslldb#...",
"..tauvkwwxlynzzdABC#..",
"..tttDEFGHIJKLMN####..",
"......................",
"......................",
"......................",
"......................",
"......................",
"......................"};
