/* XPM */
static char *hi22_action_attach[]={
"24 24 9 1",
". c None",
"d c #000000",
"b c #303030",
"f c #383838",
"g c #585858",
"e c #808080",
"c c #a0a0a0",
"# c #c3c3c3",
"a c #ffffff",
".......#a...............",
".....a.b#a..............",
"...ac#a.d#a.............",
"..aefd#a.d#a............",
"..cb..d#a.b#a...........",
"a#d....d#a.b#a..........",
"#a...a..d#a.d#a.........",
"g#a.d#a..d#a.d#a........",
".b#..b#a..d#a.d#a.......",
"..d#a.d#a..d#a.d#a......",
"...b#a.b#a..d#a.d#a.....",
"....f#a.b#a..d#a.d#a....",
".....b#a.d#a..d#a.d#a...",
"......d#a.d#a..da..d#a..",
".......f#a.f#a.e#...#g..",
"........b#a.b###d...#f..",
".........d#a.ddd....#b..",
"..........b#a.......#b..",
"...........f#a......#b..",
"............b#a.....#b..",
".............d#aaa.a#f..",
"..............bbbbfbfd..",
"........................",
"........................"};
