/* XPM */
static char *hi22_action_1downarrow_half[]={
"22 22 40 1",
". c None",
"d c #000000",
"# c #010101",
"g c #020202",
"b c #030303",
"a c #040404",
"f c #050505",
"c c #060606",
"q c #0a0a0a",
"A c #0b0b0b",
"F c #0d0d0d",
"I c #101010",
"K c #111111",
"e c #191919",
"h c #323232",
"i c #4a4a4a",
"l c #5e5e5e",
"o c #606060",
"n c #616161",
"m c #626262",
"k c #686868",
"j c #7b7b7b",
"p c #800000",
"x c #848484",
"w c #868686",
"E c #909090",
"H c #919191",
"v c #939393",
"L c #959595",
"r c #979797",
"J c #989898",
"u c #9c9c9c",
"D c #a1a1a1",
"G c #a5a5a5",
"t c #b1b1b1",
"z c #c00000",
"C c #c1c1c1",
"s c #eeeeee",
"y c #ff0000",
"B c #ffffff",
"......................",
"......................",
"......................",
"......................",
"......................",
"......................",
"..#aabcdddddddefbbgd..",
"..hijklmmnoppppppppq..",
"...hrstuvwxyyyyyzpA...",
"....hvBCDExyyyyzpF....",
".....huBCGHyyyzpI.....",
"......huBCDyyzpI......",
".......hJBCyzpK.......",
"........hGszpI........",
".........hLpI.........",
"..........hA..........",
"......................",
"......................",
"......................",
"......................",
"......................",
"......................"};
