/* XPM */
static char *hi22_action_player_pause_half[]={
"22 22 38 1",
". c None",
"# c #010101",
"a c #040404",
"b c #090909",
"s c #0c0c0c",
"c c #0d0d0d",
"w c #0e0e0e",
"y c #0f0f0f",
"F c #101010",
"u c #141414",
"i c #181818",
"n c #1a1a1a",
"I c #222222",
"g c #515151",
"G c #6f6f6f",
"r c #727272",
"A c #737373",
"h c #800000",
"D c #8b8b8b",
"f c #909090",
"q c #929292",
"E c #949494",
"C c #979797",
"J c #a0a0a0",
"B c #a3a3a3",
"e c #a4a4a4",
"v c #acacac",
"o c #aeaeae",
"z c #afafaf",
"j c #b1b1b1",
"l c #b7b7b7",
"m c #c00000",
"d c #c0c0c0",
"H c #e6e6e6",
"k c #e8e8e8",
"t c #ff0000",
"x c #ffc0c0",
"p c #ffffff",
"......................",
"......................",
"......................",
"......................",
"......................",
"....#abba#..#abba#....",
"....cdefga..cdefgh....",
"....ijklgb..ijklmh....",
"....nopqrs..noptth....",
"....uvpqrw..uvxtth....",
"....yzpqAw..ytxtth....",
"....wBpqAh..wtxtth....",
"....wCpDrh..wtxtth....",
"....wEpDth..wtxtth....",
"....FGHtth..Fmxtth....",
"....IJxtth..Imxtth....",
"....#tttmh..#mttmh....",
"....hhhhhh..hhhhhh....",
"......................",
"......................",
"......................",
"......................"};
