/* XPM */
static char *hi22_action_filesave[]={
"24 24 120 2",
"Qt c None",
".# c #1c1c1c",
".a c #404040",
"#D c #424242",
"#V c #535353",
"#U c #545454",
"#P c #555555",
"#O c #565656",
"#I c #575757",
"#H c #595959",
"#B c #5a5a5a",
"#A c #5b5b5b",
"#r c #5c5c5c",
"#q c #5d5d5d",
"#p c #5f5f5f",
"#o c #606060",
"#n c #616161",
"#m c #626262",
"#h c #636363",
"#l c #646464",
"#g c #656565",
"#d c #666666",
"#c c #676767",
".5 c #686868",
"#k c #696969",
".r c #69a5a5",
".4 c #6a6a6a",
".Z c #6b6b6b",
".Y c #6c6c6c",
".M c #6d6d6d",
"#j c #6e6e6e",
".L c #6f6f6f",
".H c #707070",
".G c #717171",
".u c #727272",
"#i c #737373",
".t c #747474",
".n c #757575",
".m c #767676",
"#f c #777777",
"#e c #787878",
".7 c #797979",
".6 c #7b7b7b",
".1 c #7c7c7c",
".0 c #7d7d7d",
".O c #7e7e7e",
"#N c #7f7f7f",
".N c #808080",
".J c #818181",
".I c #828282",
".w c #838383",
".v c #858585",
".o c #868686",
".b c #878787",
"#z c #8b8b8b",
"#y c #8e8e8e",
"#1 c #a8a8a8",
".q c #abbbb6",
"#T c #aeaeae",
"#0 c #b0b0b0",
"#M c #b4b4b4",
"#S c #b6b6b6",
"#Z c #b7b7b7",
"#G c #bababa",
"#L c #bcbcbc",
"#R c #bdbdbd",
"#Y c #bfbfbf",
"#x c #c0c0c0",
"#F c #c2c2c2",
"#K c #c3c3c3",
"#X c #c6c6c6",
"#w c #c8c8c8",
"#E c #c9c9c9",
"#W c #cecece",
"#v c #cfcfcf",
"#Q c #d4d4d4",
"#u c #d7d7d7",
"#J c #dadada",
"#t c #dedede",
"#C c #e0e0e0",
"#s c #e6e6e6",
"#b c #f3e1d2",
".3 c #f4e3d5",
"#a c #f4e5d7",
".X c #f5e5d8",
"## c #f5e7da",
".W c #f5e7db",
".K c #f5e7dc",
"#. c #f6e8dd",
".V c #f6e9de",
".F c #f6eadf",
".9 c #f7eae0",
".U c #f7ebe1",
".E c #f7ebe2",
".s c #f7ece2",
".8 c #f7ece3",
".D c #f8ede4",
".l c #f8eee5",
".T c #f8efe6",
".C c #f8efe7",
".k c #f9f0e8",
".S c #f9f0e9",
".B c #f9f1ea",
".j c #f9f2eb",
".R c #faf2ec",
".A c #faf3ed",
".i c #faf3ee",
".2 c #faf4ee",
".Q c #faf4ef",
".h c #fbf5f0",
".P c #fbf6f2",
".z c #fbf7f2",
".g c #fcf7f3",
".y c #fcf8f5",
".f c #fcf9f6",
".x c #fdfaf8",
".e c #fdfbf9",
".p c #fefcfb",
".d c #fefdfc",
".c c #ffffff",
"QtQtQtQtQtQtQtQtQtQtQtQtQtQtQtQtQtQtQtQtQtQtQtQt",
"QtQtQtQtQtQtQtQtQtQtQtQtQtQtQtQtQtQtQtQtQtQtQtQt",
"QtQtQtQtQtQtQtQtQtQtQtQtQtQtQtQtQtQtQtQtQtQtQtQt",
"QtQtQtQt.#.#.#.a.a.a.a.a.a.a.a.a.a.#.#.#QtQtQtQt",
"QtQtQt.#.b.b.a.c.d.e.f.g.h.i.j.k.l.a.m.n.#QtQtQt",
"QtQtQt.#.b.o.a.p.q.r.r.r.r.r.r.q.s.a.t.u.#QtQtQt",
"QtQtQt.#.v.w.a.x.y.z.h.A.B.C.D.E.F.a.G.H.#QtQtQt",
"QtQtQt.#.I.J.a.y.q.r.r.r.r.r.r.q.K.a.L.M.#QtQtQt",
"QtQtQt.#.N.O.a.P.Q.R.S.T.D.U.V.W.X.a.Y.Z.#QtQtQt",
"QtQtQt.#.0.1.a.2.q.r.r.r.r.r.r.q.3.a.4.5.#QtQtQt",
"QtQtQt.#.6.7.a.j.k.l.8.9#.###a.3#b.a#c#d.#QtQtQt",
"QtQtQt.##e#f.m.a.a.a.a.a.a.a.a.a.a#d#g#h.#QtQtQt",
"QtQtQt.#.m.t#i.u.H.L#j.Y.Z#k.5#c#g#l#m#n.#QtQtQt",
"QtQtQt.##i.u.G.L#j.Y.Z.4.5#c#g#l#h#n#o#p.#QtQtQt",
"QtQtQt.#.G.H#j.M.a.a.a.a.a.a.a.a.a#p#q#r.#QtQtQt",
"QtQtQt.##j.M.Y.a#s#t#u#v#w#x.a#y#z.a#A#B.#QtQtQt",
"QtQtQt.#.Y.Z#k.a#C#D#D#E#F#G.a.b.v.a#H#I.#QtQtQt",
"QtQtQt.##k.5#c.a#J#D#d#K#L#M.a.J#N.a#O#P.#QtQtQt",
"QtQtQt.##c.##l.a#Q#D#d#R#S#T.a.6#e.a#U#V.#QtQtQt",
"QtQtQt.##g#h#m.a#W#X#Y#Z#0#1.a.m#i.a#V#V.#QtQtQt",
"QtQtQtQt.#.#.#.#.a.a.a.a.a.a.#.#.#.#.#.#QtQtQtQt",
"QtQtQtQtQtQtQtQtQtQtQtQtQtQtQtQtQtQtQtQtQtQtQtQt",
"QtQtQtQtQtQtQtQtQtQtQtQtQtQtQtQtQtQtQtQtQtQtQtQt",
"QtQtQtQtQtQtQtQtQtQtQtQtQtQtQtQtQtQtQtQtQtQtQtQt"};
