/* XPM */
static char * sc_logo_xpm[] = {
"64 64 162 2",
"  	c None",
". 	c #7681B6",
"+ 	c #394895",
"@ 	c #0E207E",
"# 	c #394795",
"$ 	c #5E6AA9",
"% 	c #5F6BA9",
"& 	c #6470AC",
"* 	c #25358A",
"= 	c #515EA2",
"- 	c #49579D",
"; 	c #2F3E90",
"> 	c #24358A",
", 	c #132480",
"' 	c #6672AD",
") 	c #5764A5",
"! 	c #2B3B8D",
"~ 	c #233389",
"{ 	c #737DB4",
"] 	c #848EBD",
"^ 	c #5763A5",
"/ 	c #172883",
"( 	c #868FBE",
"_ 	c #1D2E86",
": 	c #1B2C85",
"< 	c #1F3087",
"[ 	c #314090",
"} 	c #5C68A8",
"| 	c #303F90",
"1 	c #F94F70",
"2 	c #F81B46",
"3 	c #F93258",
"4 	c #414F99",
"5 	c #203087",
"6 	c #6773AD",
"7 	c #233489",
"8 	c #F95675",
"9 	c #F82A52",
"0 	c #F93A5F",
"a 	c #192A84",
"b 	c #2A3A8D",
"c 	c #525FA2",
"d 	c #213188",
"e 	c #203188",
"f 	c #8992BF",
"g 	c #6B76B0",
"h 	c #2E3E8F",
"i 	c #2C3C8E",
"j 	c #112380",
"k 	c #162782",
"l 	c #737EB4",
"m 	c #FB7A92",
"n 	c #F82B53",
"o 	c #FC9CAE",
"p 	c #4C5A9F",
"q 	c #939CC5",
"r 	c #5B67A7",
"s 	c #1C2D86",
"t 	c #7A84B8",
"u 	c #213288",
"v 	c #354493",
"w 	c #F81F49",
"x 	c #F95272",
"y 	c #27378B",
"z 	c #4A579E",
"A 	c #3F4D98",
"B 	c #0F217F",
"C 	c #2F3E8F",
"D 	c #FA6582",
"E 	c #F82750",
"F 	c #FA5F7D",
"G 	c #6874AE",
"H 	c #808ABB",
"I 	c #152682",
"J 	c #10217F",
"K 	c #F93B60",
"L 	c #F9345A",
"M 	c #5966A6",
"N 	c #29398D",
"O 	c #858FBE",
"P 	c #FA5474",
"Q 	c #F8204A",
"R 	c #F9375D",
"S 	c #FA6683",
"T 	c #10227F",
"U 	c #F93B5F",
"V 	c #F8264F",
"W 	c #FA728C",
"X 	c #2C3B8E",
"Y 	c #152782",
"Z 	c #9AA2C9",
"` 	c #FB8EA3",
" .	c #F8234C",
"..	c #F95474",
"+.	c #142581",
"@.	c #7B85B8",
"#.	c #42509A",
"$.	c #606CAA",
"%.	c #FB7E96",
"&.	c #6570AC",
"*.	c #223389",
"=.	c #747EB4",
"-.	c #223289",
";.	c #727DB3",
">.	c #9BA3C9",
",.	c #6772AE",
"'.	c #122380",
").	c #374694",
"!.	c #45529B",
"~.	c #1A2B84",
"{.	c #364593",
"].	c #747FB5",
"^.	c #2D3D8E",
"/.	c #505DA1",
"(.	c #6772AD",
"_.	c #3D4B97",
":.	c #B4BAD7",
"<.	c #757FB5",
"[.	c #9CA4CA",
"}.	c #616DAA",
"|.	c #43519A",
"1.	c #0F217E",
"2.	c #46539C",
"3.	c #334292",
"4.	c #727CB3",
"5.	c #5663A4",
"6.	c #4E5BA0",
"7.	c #2E3D8F",
"8.	c #3B4A96",
"9.	c #616DAB",
"0.	c #9CA3CA",
"a.	c #7D87B9",
"b.	c #3A4896",
"c.	c #47559C",
"d.	c #2D3D8F",
"e.	c #4C599F",
"f.	c #5562A4",
"g.	c #525FA3",
"h.	c #717BB3",
"i.	c #24348A",
"j.	c #29398C",
"k.	c #4E5CA0",
"l.	c #49579E",
"m.	c #324291",
"n.	c #7882B6",
"o.	c #636FAC",
"p.	c #AEB4D3",
"q.	c #28388C",
"r.	c #3A4895",
"s.	c #46549C",
"t.	c #142681",
"u.	c #2D3C8E",
"v.	c #5D69A8",
"w.	c #4D5BA0",
"x.	c #344392",
"y.	c #26368B",
"z.	c #717CB3",
"A.	c #3C4B97",
"B.	c #304090",
"C.	c #A8AED0",
"D.	c #4B589E",
"E.	c #5A66A6",
"                                                                                                                                ",
"                                                                                                                                ",
"                                                                                                                                ",
"                                                                                                                                ",
"                                                                                                                                ",
"                                                                                                                                ",
"                                                                                                                                ",
"                                                                                                                                ",
"                                                                                                                                ",
"                                                                                                                                ",
"                                                                                                                                ",
"                                                                                                                                ",
"                                                                                                                                ",
"                                                                                                                                ",
"                                                                                                                                ",
"                      . + @ @ @ @ @ @ # $                                     % & * @ @ @ @ @ @ = -                             ",
"                  ; > @ @ @ @ @ @ @ @ @ @ , + '                           ) ! @ @ @ @ @ @ @ @ @ @ @ ~ * {                       ",
"              ] * @ @ @ @ @ @ @ @ @ @ @ @ @ @ @                       ^ * @ @ @ @ @ @ @ @ @ @ @ @ @ @ @ /                       ",
"            ( _ @ @ @ @ @ @ @ @ @ @ @ @ @ @ @ @                     & : @ @ @ @ @ @ @ @ @ @ @ @ @ @ @ @ <                       ",
"            @ @ @ @ @ @ @ @ @ @ @ @ @ @ @ @ @ [                   } @ @ @ @ @ @ @ @ @ @ @ @ @ @ @ @ @ @ |           1 2 3       ",
"          4 @ @ @ @ @ @ @ @ @ @ @ @ @ @ @ @ @ 5                 6 @ @ @ @ @ @ @ @ @ @ @ @ @ @ @ @ @ @ 7         8 9 2 2 2 0     ",
"          a @ @ @ @ @ @ b c         ' d e @ @ f               g @ @ @ @ @ @ @ @ @ / h @ @ @ / i j @ k l     m n 2 2 2 2 2 2 o   ",
"        p @ @ @ @ @ @ _ q                 r $                 s @ @ @ @ @ @ @ @ a t             { u v       w 2 2 2 2 2 2 2 x   ",
"        y @ @ @ @ @ @ z                                     A @ @ @ @ @ @ @ B C                             D 2 2 2 2 2 2 2 E F ",
"        @ @ @ @ @ @ @ G                                   H I @ @ @ @ @ @ @ J                                 K 2 2 2 2 2 2 2 L ",
"        @ @ @ @ @ @ @ M                                   N @ @ @ @ @ @ @ k O                                 P Q 2 2 2 2 2 R S ",
"        @ @ @ @ @ @ @ d                                   T @ @ @ @ @ @ @ a                                     U 2 2 2 V W     ",
"        @ @ @ @ @ @ @ @ d                               X @ @ @ @ @ @ @ Y Z                                     `  .R ..        ",
"        @ @ @ @ @ @ @ @ @ +.y @.                        #.@ @ @ @ @ @ X $.                                        %.            ",
"        &.@ @ @ @ @ @ @ @ @ @ @ *.=.                    N v e -.;.>.                                                            ",
"        ,.a @ @ @ @ @ @ @ @ @ @ @ '.).z                                                                                         ",
"          !.~.@ @ @ @ @ @ @ @ @ @ @ ~ {.].                                                                                      ",
"            ;.^.@ @ @ @ @ @ @ /.;.                                                                                              ",
"                (._.v _ ( :.                                        <.$                                                         ",
"                                                        [.}.@ |.{.@ @ @                                                         ",
"                                                      @ @ @ @ @ @ @ 1.-.                                                        ",
"                                    ( 2.@ 3.{.        @ @ @ @ @ @ @ j 4.                                                        ",
"                              5.-.@ @ @ @ @ @         @ @ @ @ @ @ @ B {.                                                        ",
"                              6.@ @ @ @ @ @ @         @ @ @ @ @ @ @ @ @                                                         ",
"                              7.@ @ @ @ @ @ 8.        9.@ @ @ @ @ @ @ #.                                                        ",
"    0.                        > @ @ @ @ @ @ c         a.@ @ @ @ @ @ @ Y b.              4.c.                                    ",
"  4 @ d.4.                  e.@ @ @ @ @ @ ,             _ @ @ @ @ @ @ @ T f.g.      h.i.@ @                                     ",
"  : @ @ @ j.@ ,.(     ( k.b @ @ @ @ @ @ @ *             l.@ @ @ @ @ @ @ @ @ j {.m.@ @ @ @ @ e.                                  ",
"n.@ @ @ @ @ @ @ @ @ @ @ @ @ @ @ @ @ @ @ @ o.            4.j @ @ @ @ @ @ @ @ @ @ @ @ @ @ @ @ y p.                                ",
"q.@ @ @ @ @ @ @ @ @ @ @ @ @ @ @ @ @ @ @ r.                s.@ @ @ @ @ @ @ @ @ @ @ @ @ @ @ @ t.{.                                ",
"@ @ @ @ @ @ @ @ @ @ @ @ @ @ @ @ @ @ @ *                     u.@ @ @ @ @ @ @ @ @ @ @ @ @ @ @ @ v.                                ",
"v.@ @ @ @ @ @ @ @ @ @ @ @ @ @ @ @ @ w.                        |.@ @ @ @ @ @ @ @ @ @ @ @ @ @ t.z                                 ",
"    x.d.y @ @ @ @ @ @ @ @ @ @ I y.A                             z.A.t.@ @ @ @ @ @ @ @ @ B.z C.                                  ",
"            $ ) @ @ @ @ 3.$ D.                                        $ E.@ @ @ Y $ r                                           ",
"                                                                                                                                ",
"                                                                                                                                ",
"                                                                                                                                ",
"                                                                                                                                ",
"                                                                                                                                ",
"                                                                                                                                ",
"                                                                                                                                ",
"                                                                                                                                ",
"                                                                                                                                ",
"                                                                                                                                ",
"                                                                                                                                ",
"                                                                                                                                ",
"                                                                                                                                ",
"                                                                                                                                ",
"                                                                                                                                "};
