/* XPM */
static char * scLogo_15Farben_xpm[] = {
"124 56 15 1",
" 	c None",
".	c #FFFFFF",
"+	c #08217B",
"@	c #21318C",
"#	c #FF1842",
"$	c #E7DEEF",
"%	c #A5A5CE",
"&	c #5A5A9C",
"*	c #FF294A",
"=	c #9C94BD",
"-	c #B5ADCE",
";	c #FF848C",
">	c #FF5A6B",
",	c #8484B5",
"'	c #BDB5D6",
"......................................................-,&@+++@&,-......................$=&@@++++@&,'........................",
"...................................................$&@++++++++++++&'.................%&+++++++++++++@,$.....................",
"..................................................,+++++++++++++++++,...............@+++++++++++++++++@=....................",
"................................................$&+++++++++++++++++++$............$&++++++++++++++++++++-.............$;....",
"................................................@+++++++++++++++++++@............'@++++++++++++++++++++@............$>##;...",
"...............................................&++++++++++++++++++++&...........%++++++++++++++++++++++-...........;*###*...",
"..............................................%+++++++++++++++++++++'..........%++++++++++++++++++++++&..........;*######;..",
"..............................................@+++++++++@,'$-,@++++@..........'++++++++++++++@++++++++$........$*########*..",
".............................................%+++++++++,.......'&++,.........$@++++++++++@=$...$%&+++,.........;##########;.",
".............................................&++++++++,..........$=$.........&++++++++++,.........$&&...........>#########*$",
".............................................@++++++++$.....................-++++++++++-........................$##########>",
"............................................$++++++++@......................@+++++++++=..........................>#########*",
"............................................-+++++++++$....................@++++++++@$............................;#####;$..",
"............................................-+++++++++&...................'+++++++++,.............................$*##>$....",
"............................................'++++++++++@$.................&+++++++++$..............................;>'......",
"............................................$++++++++++++&$...............@++++++++@........................................",
".............................................@+++++++++++++&.............'++++@&='..........................................",
".............................................=++++++++++++++@=...........-&='...............................................",
"..............................................&+++++++++++++++&$............................................................",
"..............................................$@++++++++++++++@&$...........................................................",
"................................................,+++++++++@&-$..............................................................",
".................................................'&++@&,-$..................................................................",
"...................................................'$.........................'=&@+.........................................",
".........................................................................'=&@+++++@.........................................",
"........................................................................-+++++++++@.........................................",
"..............................................................$',&@'....-+++++++++@.........................................",
"...........................................................-&@+++++-....'+++++++++@.........................................",
"...........................................................@+++++++-....'+++++++++@.........................................",
"...........................................................@+++++++'....$++++++++++$........................................",
"...........................................................@+++++++$.....@+++++++++=........................................",
"..........................................$...............'+++++++@......&+++++++++@.........$-.............................",
".........................................,+&'.............@+++++++&......=++++++++++'......'&++'............................",
".........................................@+++@=$........'@++++++++'......$+++++++++++@&,&&@++++&............................",
"........................................'+++++++@&,===,@+++++++++@........&++++++++++++++++++++@............................",
"........................................&++++++++++++++++++++++++'........$+++++++++++++++++++++%...........................",
"........................................@+++++++++++++++++++++++,..........,++++++++++++++++++++&...........................",
".......................................$@+++++++++++++++++++++,..............&+++++++++++++++++++$..........................",
"........................................$,@+++++++++++++++++@-................%@+++++++++++++++&$...........................",
"...........................................'&@+++++++++++++&...................$,@++++++++++@,'.............................",
"..............................................$-,&&@@@&&,-$.......................'=&@@@&,=$................................",
"............................................................................................................................",
"............................................................................................................................",
"............................................................................................................................",
"............................................................................................................................",
"............................................................................................................................",
"..........$,...................................................................',$..........................................",
"..........,+...............................................................,,..&+-..........................................",
"..$....$..$%..$$...$.$....$$...$$............$$...$....$.$.....$.$.........&&..$%..$$$...$..................................",
"%++@.$@++,@@.,++&.,@&+@$.,++&.&++,...$@$....&++,$@++=.,@@+@@&.,@@+&.'+'$+-&++@&@@$-+++'.&+@@,...............................",
"@&$'.&@$=$,+'+-=+'=+=,+-'+,$--+',+$..$+$...,+-'',+'&+$,+=&+%+.,+%=+--+''+-$@@'$,+$'+-+='+,-+=...............................",
"&+&'.+&...-+=+&@+==+$'+-,+$..,+&@+-.&&+@&$.&@...&@.%+'=+$,+$+.=+$$+=-+''+-.&&..=+$'+$+==+$$+=...............................",
".=@+$+&...-+=+===$=+$'+-,+$..,+===$.=,+,=$.&@...&@.%+'=+$,+$+.=+$$+=-+''+-.&&..=+$'+$+==+$$+=...............................",
",-,+$@@'=.-+'+,',.=+$'+-'+&''%+,-,...$+$...,+=-$,+-&@$=+$,+$+.=+%,+'-+,,+%.&@,$=+$'+$+='+&&+=...............................",
"&@+&.'@+@$'@.,++@$-@$'@'.,++,.&++&$...,$....&+@%.&+@%.%@$=@.@.=+@+&.$@+&@=.=+@'-@$$@$@%.=&&+=...............................",
"..............................................................=+$.......................%$$+=...............................",
"..............................................................=+$......................$+++@$..............................."};
