/* XPM */
static char *zero[]={
"24 24 4 1",
". c None",
"b c #303030",
"a c #585858",
"# c #a0a0a0",
"........................",
"........................",
"........................",
"......#abbbbbbba#.......",
".....#bbbbbbbbbbb#......",
".....aba.......aba......",
".....bb.........bb......",
".....bb.........bb......",
".....bb.........bb......",
".....bb.........bb......",
".....bb.........bb......",
".....bb.........bb......",
".....bb.........bb......",
".....bb.........bb......",
".....bb.........bb......",
".....bb.........bb......",
".....bb.........bb......",
".....bb.........bb......",
".....aba.......aba......",
".....#bbbbbbbbbbb#......",
"......#abbbbbbba#.......",
"........................",
"........................",
"........................"};
